<svg viewBox="0 0 768 768" class="icon">
  <path d="m 516.79679,416.80862 c 78.11576,0 234.34728,39.05788 234.34728,117.17364 v 82.8027 H 551.16772 v -82.8027 c 0,-49.99409 -26.55936,-87.48965 -65.61724,-115.61132 10.93621,-1.56232 21.87242,-1.56232 31.24631,-1.56232 z m -265.59358,0 c 78.11576,0 232.78496,39.05788 232.78496,117.17364 v 82.8027 H 16.85593 v -82.8027 c 0,-78.11576 156.23152,-117.17364 234.34728,-117.17364 z m 0,-65.61724 c -54.68103,0 -99.98817,-45.30714 -99.98817,-99.98817 0,-54.68103 45.30714,-99.98817 99.98817,-99.98817 54.68103,0 98.42585,45.30714 98.42585,99.98817 0,54.68103 -43.74482,99.98817 -98.42585,99.98817 z m 265.59358,0 c -54.68103,0 -99.98817,-45.30714 -99.98817,-99.98817 0,-54.68103 45.30714,-99.98817 99.98817,-99.98817 54.68103,0 99.98817,45.30714 99.98817,99.98817 0,54.68103 -45.30714,99.98817 -99.98817,99.98817 z"/>
</svg>
