<?xml version="1.0" encoding="UTF-8" standalone="no"?>
<!-- Created with Inkscape (http://www.inkscape.org/) -->

<svg
   xmlns:dc="http://purl.org/dc/elements/1.1/"
   xmlns:cc="http://creativecommons.org/ns#"
   xmlns:rdf="http://www.w3.org/1999/02/22-rdf-syntax-ns#"
   xmlns:svg="http://www.w3.org/2000/svg"
   xmlns="http://www.w3.org/2000/svg"
   xmlns:sodipodi="http://sodipodi.sourceforge.net/DTD/sodipodi-0.dtd"
   xmlns:inkscape="http://www.inkscape.org/namespaces/inkscape"
   width="297.85608mm"
   height="47.625046mm"
   viewBox="0 0 297.85608 47.625046"
   version="1.1"
   id="svg101"
   inkscape:version="0.92.3 (2405546, 2018-03-11)"
   sodipodi:docname="logo.svg"
   inkscape:export-filename="/omega/projects/saleina/static/images/logo.png"
   inkscape:export-xdpi="284.866"
   inkscape:export-ydpi="284.866">
  <defs
     id="defs95" />
  <sodipodi:namedview
     id="base"
     pagecolor="#ffffff"
     bordercolor="#666666"
     borderopacity="1.0"
     inkscape:pageopacity="0.0"
     inkscape:pageshadow="2"
     inkscape:zoom="0.7"
     inkscape:cx="346.61313"
     inkscape:cy="120.1629"
     inkscape:document-units="mm"
     inkscape:current-layer="layer1"
     showgrid="false"
     showborder="false"
     inkscape:window-width="1600"
     inkscape:window-height="851"
     inkscape:window-x="0"
     inkscape:window-y="0"
     inkscape:window-maximized="1"
     showguides="true"
     inkscape:pagecheckerboard="true"
     fit-margin-top="0"
     fit-margin-left="0"
     fit-margin-right="0"
     fit-margin-bottom="0" />
  <metadata
     id="metadata98">
    <rdf:RDF>
      <cc:Work
         rdf:about="">
        <dc:format>image/svg+xml</dc:format>
        <dc:type
           rdf:resource="http://purl.org/dc/dcmitype/StillImage" />
        <dc:title></dc:title>
      </cc:Work>
    </rdf:RDF>
  </metadata>
  <g
     inkscape:label="Layer 1"
     inkscape:groupmode="layer"
     id="layer1"
     transform="translate(5.3417295,-239.99664)">
    <g
       id="g3884"
       style="fill:#000000"
       transform="matrix(0.9940841,0,0,0.99678012,91.742965,131.67365)">
      <g
         style="font-style:normal;font-variant:normal;font-weight:normal;font-stretch:normal;font-size:40px;line-height:1.25;font-family:Helvetica;-inkscape-font-specification:Helvetica;letter-spacing:0px;word-spacing:0px;fill:#000000;fill-opacity:1;stroke:none"
         id="flowRoot136" />
      <g
         transform="scale(0.26458333)"
         style="font-style:normal;font-weight:normal;font-size:40px;line-height:1.25;font-family:sans-serif;letter-spacing:0px;word-spacing:0px;fill:#000000;fill-opacity:1;stroke:none"
         id="flowRoot144" />
      <g
         aria-label="aleina"
         transform="matrix(1.0013551,0,0,0.99864673,-3.7262106,-0.48447136)"
         style="font-style:normal;font-weight:normal;font-size:10.63190842px;line-height:1.25;font-family:sans-serif;letter-spacing:0px;word-spacing:0px;fill:#333333;fill-opacity:1;stroke:none;stroke-width:0.2657977"
         id="text3888">
        <g
           id="g4611">
          <g
             transform="translate(-2.2782657,-4.9691843)"
             id="g4588">
            <g
               transform="matrix(0.99864675,0,0,1.0013551,3.7211686,0.48512879)"
               id="g4805"
               inkscape:export-xdpi="17.07"
               inkscape:export-ydpi="17.07"
               style="fill:#009688;fill-opacity:1">
              <g
                 transform="translate(-3.0921519,0.60878006)"
                 id="g3933"
                 style="fill:#009688;fill-opacity:1">
                <g
                   id="g184"
                   transform="matrix(0.10798277,0,0,0.10798277,-193.56951,60.575867)"
                   style="fill:#009688;fill-opacity:1">
                  <path
                     id="path176"
                     d="m 972.9,771.7 c -1.4,-2 0.7,-2.9 2.9,-3.8 2.3,-2.3 3.1,-4.1 3.1,-5.4 0,-1.3 -0.9,-2.3 -2.1,-2.9 -2.5,-1.3 -6.6,-1.4 -8,-0.8 -1.6,-2.7 -1.7,-4 -1.2,-4.6 0.5,-0.6 1.6,-0.5 2.9,-0.2 2.5,0.5 5.5,1.3 4.7,-2.3 2.2,-0.3 3.6,0.4 4.5,1.5 0.9,1.1 1.4,2.7 1.7,4.6 0.1,0.9 0.3,1.9 0.4,2.8 0.1,1 0.2,1.9 0.4,2.8 0.4,1.8 0.9,3.4 1.9,4.5 z"
                     inkscape:connector-curvature="0"
                     style="fill:#009688;fill-opacity:1" />
                  <path
                     id="path178"
                     d="m 1222.2,906.9 c -0.4,4.4 -2.2,6.9 -4.6,8.4 -1.2,0.7 -2.6,1.3 -4,1.6 -1.5,0.3 -3,0.4 -4.5,0.6 -6,0.6 -11.8,0.4 -12.9,7.8 1.6,-0.3 3.1,-0.6 4.7,-1 1.6,-0.3 3.2,-0.6 4.7,-1 3.1,-0.8 6.3,-1.6 9.4,-2.3 3.1,-0.9 6.2,-1.8 9.3,-2.8 3.1,-1 6.1,-2.1 9.2,-3.1 12.2,-4.4 24.2,-9.8 35.7,-16.2 22.9,-12.8 43.9,-29.6 61,-49.8 17.1,-20.1 30.3,-43.3 38.5,-67.8 4.1,-12.2 6.8,-24.7 8.2,-37.1 1.4,-12.4 1.6,-24.8 0.5,-36.7 -1.4,5 -3.9,3.8 -8.7,2 -2.4,-0.9 -5.5,-1.9 -9.3,-2.5 -3.8,-0.5 -8.4,-0.6 -14,0.3 0,12.8 -1.4,25.5 -4,38 12,2.3 13.9,8.8 21.5,13.4 3,-5.9 -1.9,-8.5 -7.1,-10.8 -5.1,-2.3 -10.7,-4.5 -9.1,-9.5 13.3,-1.1 1.5,9.1 14.8,8.2 0.1,-4.3 3.3,-10.1 -2.1,-11.7 0.6,2.5 0.1,3.9 -0.8,4.4 -0.9,0.5 -2.4,0.3 -3.9,-0.4 -1.5,-0.7 -3.1,-1.7 -4.4,-2.8 -1.3,-1.1 -2.4,-2.1 -2.7,-2.9 5.9,-1.2 4.3,-4.7 2.6,-7.8 -1.7,-3.2 -3.4,-6.1 2.9,-7.5 3,7.1 7.5,4.7 12,2 2.2,-1.3 4.5,-2.7 6.5,-2.8 2,-0.1 3.8,1.2 5.2,5.2 -1.2,-0.4 -2.4,0.8 -3.4,2.9 -0.5,1 -1,2.3 -1.4,3.7 -0.5,1.4 -0.9,2.9 -1.2,4.5 -0.3,1.6 -0.5,3.3 -0.6,5 -0.1,1.7 -0.2,3.4 -0.1,5 0.1,1.6 0.3,3.2 0.8,4.7 0.2,0.7 0.5,1.4 0.8,2.1 0.3,0.7 0.6,1.3 1,1.8 -2.6,2.5 -5,5.2 -7.9,7.2 -3,2 -6.5,3.2 -11.1,3 -0.6,-3 -3,-5.3 -5.8,-7.5 -2.8,-2.2 -5.7,-4.2 -7.1,-6.8 -0.5,1.3 -0.9,2.8 -1.1,4.4 -0.2,1.5 -0.4,3.1 -0.4,4.8 0,1.6 0.2,3.3 0.5,5 0.3,1.7 0.6,3.3 1.2,5 1.1,3.2 2.9,6.3 5.3,8.8 2.4,2.4 5.5,4.3 9.6,4.9 -2.6,-1 -4,-2.9 -4.5,-5.1 -0.6,-2.2 -0.2,-4.7 1.1,-6.9 0.3,-0.5 0.7,-1.1 1.1,-1.6 0.4,-0.5 0.9,-1 1.4,-1.4 1,-0.9 2.3,-1.7 3.7,-2.2 2.9,-1.1 6.6,-1.3 11.1,0.2 -2.8,5.6 -9.8,5.4 -14.8,7.7 3.1,0.5 5.3,2 6.7,4.2 0.7,1.1 1.2,2.2 1.5,3.5 0.3,1.3 0.5,2.6 0.3,3.9 -0.2,2.6 -1.1,5.2 -2.5,7.1 -0.4,0.5 -0.7,0.9 -1.2,1.3 -0.4,0.4 -0.9,0.7 -1.4,1 -1,0.5 -2.1,0.8 -3.3,0.8 1.6,-1.9 2.1,-3.4 1.8,-4.5 -0.3,-1.1 -1.4,-1.8 -2.8,-2.2 -2.8,-0.8 -6.7,-0.7 -8.8,-0.7 -3,4.5 -0.1,5.4 3.5,6.5 3.6,1.1 7.9,2.3 7.5,7.9 -4.4,-1.5 -6.7,0.9 -8.9,3.4 -1.1,1.3 -2.2,2.6 -3.5,3.4 -1.4,0.8 -2.9,1.2 -4.9,0.6 -5,-2.6 -6.2,-5.5 -6.7,-8.4 -0.6,-3 -0.3,-6 -2.3,-8.6 7.1,2.8 6.5,6.6 13.1,9.6 -1,-2.2 -1.4,-4.4 -1.5,-6.7 -0.2,-2.3 0,-4.6 0,-6.9 0,-1.1 0,-2.3 -0.1,-3.4 -0.1,-1.1 -0.3,-2.2 -0.6,-3.3 -0.6,-2.2 -1.7,-4.2 -3.6,-6 -0.2,-2.3 -0.5,-3.8 -0.8,-4.7 -0.3,-0.9 -0.6,-1.2 -1,-0.9 -0.3,0.2 -0.6,0.9 -1,2 -0.3,1.1 -0.7,2.4 -1.1,4.1 -0.4,1.6 -0.8,3.5 -1.2,5.4 -0.5,1.9 -1,3.9 -1.5,5.8 -0.3,1 -0.5,1.9 -0.7,2.9 -0.3,0.9 -0.6,1.8 -0.8,2.6 -0.5,1.7 -1.1,3.1 -1.5,4.3 -0.2,0.6 -0.5,1.2 -0.9,1.8 -0.3,0.6 -0.8,1.1 -1.2,1.7 -0.9,1.1 -1.9,2.2 -2.8,3.2 -1,1 -2,2 -3,2.9 -1,0.9 -1.9,1.8 -2.6,2.7 -1.5,1.8 -2.2,3.6 -1.7,5.5 0.5,2 2.5,4.2 6.6,6.8 3.3,-1.6 1.9,-6.1 0.9,-9.4 -1,-3.4 -1.7,-5.8 3.1,-4 -0.2,2.5 -0.1,3.4 0.4,3.5 0.5,0.1 1.4,-0.6 2.5,-1.4 2.2,-1.5 5.4,-3.2 8.8,1.6 1,2 0.9,3.4 0.4,4.4 -0.5,1 -1.5,1.6 -2.3,2.2 -1.6,1.3 -2.3,2.6 2.6,7.4 2,-1.4 3.2,-4.8 6.6,-2.8 -0.8,2.8 -2.2,4.3 -3.8,5.1 -1.6,0.8 -3.5,0.8 -5.5,0.6 -3.9,-0.3 -7.9,-1.3 -10.4,2 2.3,1.7 3.9,3.3 4.9,4.9 1,1.6 1.4,3.1 1.3,4.5 -0.2,2.8 -2.2,5.3 -5.3,6.8 -3.2,1.5 -7.3,2.3 -11.4,2 -4.2,-0.4 -8.4,-1.8 -11.7,-4.3 1.7,0.3 3.4,-0.5 4.7,-1.8 1.3,-1.4 2.2,-3.2 2.4,-5 0.6,-3.5 -1.5,-6.4 -7.7,-4.5 4.2,-1.3 6.6,-1.9 7.8,-2.4 1.2,-0.5 1.4,-0.7 1.2,-1.1 -0.4,-0.8 -2,-2.4 0.9,-8.7 1.2,0.9 2.3,2.4 3.3,4.2 1,1.8 1.9,3.8 2.9,5.6 2,3.6 4.3,6.4 8.1,4.4 -2,-1.8 -3.4,-3.6 -4.5,-5.3 -1.1,-1.8 -2,-3.5 -2.9,-5.2 -1.7,-3.4 -3.5,-6.8 -7.2,-10.2 -1.4,2 -2.6,4.1 -4.1,6 -1.4,1.9 -2.8,3.8 -4.2,5.6 -1.4,1.8 -2.9,3.6 -4.4,5.3 -0.7,0.9 -1.4,1.8 -2.2,2.6 -0.8,0.8 -1.5,1.6 -2.3,2.5 -0.8,0.8 -1.5,1.6 -2.3,2.4 l -1.1,1.2 c -0.4,0.4 -0.8,0.8 -1.2,1.1 -1.6,1.5 -3.1,3 -4.6,4.5 -1.5,1.5 -3.2,2.8 -4.8,4.2 -0.8,0.7 -1.6,1.4 -2.4,2.1 -0.8,0.7 -1.6,1.3 -2.4,2 -1.6,1.3 -3.2,2.6 -4.9,3.8 -1.7,1.2 -3.3,2.4 -5,3.5 -0.8,0.6 -1.7,1.2 -2.5,1.8 -0.9,0.5 -1.7,1.1 -2.6,1.6 -1.7,1.1 -3.4,2.2 -5.1,3.2 -1.7,1 -3.5,2 -5.2,2.9 l -2.6,1.5 -2.7,1.3 -5.3,2.7 c -1.8,0.8 -3.6,1.6 -5.5,2.4 l -2.7,1.2 -2.8,1.1 c -1.9,0.7 -3.7,1.4 -5.6,2.1 -1.9,0.6 -3.8,1.2 -5.8,1.9 -1,0.3 -1.9,0.6 -2.9,1 -1,0.3 -2,0.5 -3,0.8 -2,0.5 -4,1.1 -6,1.6 -2,0.4 -4.1,0.9 -6.2,1.3 -1,0.2 -2.1,0.5 -3.1,0.7 -1.1,0.2 -2.1,0.4 -3.2,0.5 -2.1,0.3 -4.3,0.8 -6.4,1.1 -8.7,1.2 -17.9,1.8 -27.5,1.9 -9.7,-0.1 -19.8,-0.8 -30.4,-2.4 1.2,4.4 3.5,7.7 6.5,10.4 0.7,0.7 1.5,1.3 2.4,1.9 0.8,0.6 1.7,1.1 2.6,1.6 1.8,1 3.7,1.8 5.6,2.5 1,0.4 1.9,0.7 2.9,1 1,0.3 2,0.5 3,0.8 2,0.5 4,1 5.8,1.4 1.9,0.5 3.7,0.8 5.5,1.2 1.7,0.4 3.3,0.9 4.8,1.4 -0.5,-1.3 -0.6,-4.2 0.1,-7.3 0.3,-1.6 0.8,-3.2 1.6,-4.7 0.7,-1.6 1.7,-3.1 2.9,-4.3 4.5,3.6 4.9,8.6 5,13.1 0.1,2.3 0.2,4.4 0.9,6.2 0.7,1.7 2,3.3 4.5,3.9 -1.8,-11.4 -1.4,-20.3 2.6,-24.5 0.9,5.4 0,7.5 -0.4,9.2 -0.4,1.7 -0.3,3 2.5,6.6 1.1,0.7 2.1,1.1 3.1,1.3 1,0.2 1.9,0.1 2.8,-0.1 1.8,-0.4 3.5,-1.3 5.3,-2.1 1.7,-0.8 3.5,-1.6 5.4,-1.7 1.9,-0.1 4.1,0.4 6.6,2.2 -0.4,-2.3 -1.2,-5.1 -1.5,-7.4 -0.3,-2.3 -0.2,-4.2 1.2,-5 1.8,11.8 5.2,8.5 9,5.7 3.8,-2.9 7.9,-5.4 13.3,8.3 -8.1,4 -9.7,3.3 -9.7,1.3 -0.2,-2 1.1,-5.2 -1.3,-6.2 z m -1.1,-12.3 c -0.2,-3.5 1,-4.6 2.5,-4 1.5,0.6 3.3,2.8 4,6 0.3,-2 0.8,-3.7 1.5,-5.1 0.6,-1.4 1.4,-2.4 2.4,-3.2 1.8,-1.6 4.1,-2.4 6.3,-3.2 2.3,-0.8 4.6,-1.5 6.4,-3 1.8,-1.5 3.1,-3.7 3.2,-7.3 4.5,-0.1 3.3,1.6 1.7,4.1 -1.7,2.5 -3.9,5.9 -1,9 3.1,5.3 5.2,1.3 7.4,-2.5 2.2,-3.9 4.4,-7.6 9.2,-2 1.6,-1 1.9,-2.5 1.7,-4.3 -0.2,-1.7 -0.8,-3.7 -1.3,-5.5 -0.5,-1.8 -0.8,-3.6 -0.2,-5 0.5,-1.4 1.9,-2.3 4.8,-2.8 0.1,4.9 1.2,10.1 1.6,15.3 0.2,2.6 0.2,5.1 -0.2,7.5 -0.4,2.4 -1.3,4.6 -2.9,6.5 -0.3,-5 -1.3,-6.1 -2.7,-5.2 -0.7,0.4 -1.6,1.4 -2.5,2.6 -0.5,0.6 -1,1.3 -1.6,2.1 -0.6,0.7 -1.2,1.5 -1.8,2.3 -2.6,3.1 -5.6,6.7 -9.1,8.4 -1.7,0.9 -3.5,1.5 -5.3,1.5 -1.8,0 -3.6,-0.7 -5.3,-2.2 -3.2,-9.3 -2.1,-7.7 0.6,-5.1 1.4,1.3 3.1,2.7 5,3.2 1.8,0.5 3.7,-0.1 5.2,-2.8 -2.4,-4 -4.9,-8 -7.5,-10.3 -1.3,-1.1 -2.7,-1.8 -4.3,-1.9 -0.8,0 -1.5,0.1 -2.4,0.5 -0.8,0.3 -1.7,0.8 -2.6,1.6 -2.7,1.8 0.5,7.6 1.8,12.2 -1.8,1.7 -3.3,1.8 -4.5,1.2 -1.2,-0.7 -2.2,-2.2 -3.2,-3.7 -1.9,-3.1 -3.7,-6.6 -6.9,-4.9 z m 57.8,-20.3 -7,-9.8 c 3,0.6 6.1,2.5 9.1,3.3 3,0.9 6.1,0.8 9.1,-2.1 0.9,3 2,6.2 2.2,9.1 0.1,1.4 -0.1,2.8 -0.7,4.1 -0.6,1.3 -1.6,2.5 -3.3,3.4 -0.7,-1.5 -0.7,-2.7 -0.8,-4 -0.1,-1.3 -0.4,-2.6 -1.6,-4.2 -2.4,-3 -4.7,-0.4 -7,0.2 z m 39.6,-24.7 c 1.9,5.8 -2.5,6.9 -7.9,6.1 -2.7,-0.4 -5.8,-1.4 -8.5,-2.4 -2.8,-1 -5.2,-2.1 -6.9,-2.8 -1.2,-3 -1.5,-5.7 -0.8,-8.1 0.6,-2.5 2.1,-4.8 4.5,-7 -1.2,5.8 1,11.1 4.8,14.1 1.9,1.5 4.3,2.4 6.8,2.5 2.6,0.1 5.4,-0.6 8,-2.4 z m -32.6,-1.4 c 3.4,0.2 7.3,3.6 11.3,7.5 4,3.8 8,8 11.8,9.4 -2,4.4 -4.5,5.8 -6.9,5.5 -2.4,-0.3 -4.9,-2.2 -7.1,-4.7 -4.5,-4.9 -8.6,-11.7 -10.3,-11.2 -1.7,-2.7 -0.2,-2.8 1.1,-3 1.2,-0.2 2.4,-0.5 0.1,-3.5 z"
                     inkscape:connector-curvature="0"
                     style="fill:#009688;fill-opacity:1" />
                  <g
                     id="g161"
                     style="fill:#009688;fill-opacity:1" />
                  <path
                     id="path182"
                     d="m 1171.5,920.1 c 0.4,4.4 3.6,4.6 7.4,3.9 0.9,-0.2 1.9,-0.4 2.9,-0.6 1,-0.3 1.9,-0.5 2.9,-0.8 1.9,-0.4 3.6,-0.7 5,-0.3 1.5,1.8 0.6,3.1 -1.7,4 -1.2,0.5 -2.7,0.8 -4.4,1.1 -1.8,0.3 -3.8,0.4 -5.9,0.5 -2.1,0.1 -4.4,0.2 -6.6,0.2 -2.2,0 -4.5,-0.1 -6.6,-0.1 -2.1,-0.1 -4.2,0 -6,0 -1.8,0 -3.4,0 -4.6,0.2 2.3,-7.4 5.8,-6.1 9.4,-5.4 3.6,0.8 7.1,1.4 8.1,-6.8 3.1,0.6 1.7,4 0.1,4.1 z"
                     inkscape:connector-curvature="0"
                     style="fill:#009688;fill-opacity:1" />
                </g>
                <path
                   style="fill:#009688;fill-opacity:1;stroke-width:0.10798277"
                   inkscape:connector-curvature="0"
                   d="m -66.322614,113.47663 c -0.118781,0.68029 -0.161974,0.98264 -0.0216,1.2418 0.06479,0.12958 0.18357,0.24836 0.345544,0.41033 0.161975,0.16198 0.388738,0.35634 0.658695,0.6371 -0.356343,0.24836 -0.572308,0.32395 -0.734282,0.28075 -0.161975,-0.0432 -0.248361,-0.18357 -0.345545,-0.36714 -0.08639,-0.18357 -0.172773,-0.41033 -0.31315,-0.5939 -0.140378,-0.18357 -0.323949,-0.34555 -0.615502,-0.37794 0.0216,0.22676 0.06479,0.43193 0.107983,0.6155 0.04319,0.19437 0.107982,0.36714 0.172772,0.51832 0.129579,0.31315 0.302352,0.57231 0.507519,0.76668 0.09718,0.0972 0.205167,0.18357 0.323948,0.26995 0.107983,0.0864 0.237562,0.15118 0.356344,0.21597 0.24836,0.12958 0.529115,0.20517 0.820669,0.28075 0.583107,0.14038 1.241801,0.21597 1.900496,0.31315 0.658695,0.0972 1.328188,0.22677 1.900497,0.44273 1.241802,0.46433 2.483604,1.09063 3.606625,1.80331 1.12302,0.70189 2.116462,1.50097 2.915534,2.23525 0.561511,-0.15118 0.853064,-0.68029 1.144618,-1.07983 0.291553,-0.38874 0.604703,-0.6479 1.295793,-0.18357 -1.144617,0.28075 -0.269957,0.39954 -0.712686,1.12302 -0.151176,0.14038 -0.280755,0.17277 -0.399537,0.16197 -0.118781,-0.0108 -0.226763,-0.0648 -0.345544,-0.0972 -0.226764,-0.0864 -0.464326,-0.14038 -0.766678,0.25916 0.809871,0.68029 1.56575,1.50096 2.224445,2.40801 0.658695,0.90706 1.220205,1.9005 1.716926,2.90474 0.496721,1.00424 0.917854,2.01928 1.295793,3.00192 0.107983,0.24836 0.194369,0.49672 0.291554,0.73428 0.09718,0.23757 0.194369,0.48593 0.291553,0.72349 0.08639,0.23756 0.194369,0.47512 0.291554,0.70189 0.08639,0.23756 0.18357,0.46432 0.291553,0.69109 0.464326,-0.37794 0.971845,-0.86387 1.436171,-1.19861 0.475124,-0.33475 0.93945,-0.50752 1.371381,-0.24836 -0.05399,0.6263 -0.431931,0.69109 -0.853064,0.71268 -0.421132,0.0108 -0.885458,-0.0324 -1.155415,0.31315 0.56151,0.55072 0.539914,0.90706 0.24836,1.02584 -0.291553,0.11878 -0.853064,0.0108 -1.425373,-0.24836 0.0108,0.34555 0.0324,0.68029 0.07559,0.99344 0.0216,0.32395 0.07559,0.6155 0.172773,0.88546 0.183571,0.53991 0.529115,0.95025 1.274197,1.14462 0.151175,-0.70189 0.788274,-1.05823 1.392977,-1.06903 0.604704,-0.0108 1.177012,0.35634 1.198609,1.06903 l -0.03239,-0.87466 c -0.0108,-0.14038 -0.0108,-0.29156 -0.0216,-0.43193 l -0.0324,-0.43193 -0.0324,-0.43194 c -0.0108,-0.14037 -0.0216,-0.29155 -0.04319,-0.43193 l -0.118781,-0.86386 c -0.0216,-0.14038 -0.04319,-0.29155 -0.07559,-0.43193 l -0.07559,-0.43193 -0.07559,-0.43193 c -0.0324,-0.14038 -0.06479,-0.28076 -0.09718,-0.42114 -0.06479,-0.28075 -0.12958,-0.56151 -0.205168,-0.84226 l -0.237562,-0.83147 -0.06479,-0.20517 -0.06479,-0.20516 -0.140378,-0.41034 c -0.09718,-0.26995 -0.18357,-0.55071 -0.302352,-0.82067 -0.107982,-0.26995 -0.215965,-0.53991 -0.323948,-0.80987 l -0.356343,-0.78827 c -0.118781,-0.26996 -0.259159,-0.51832 -0.388738,-0.77748 -0.129579,-0.25916 -0.259159,-0.51831 -0.410334,-0.76667 -0.140378,-0.24837 -0.291554,-0.49673 -0.431932,-0.74509 l -0.464325,-0.72348 c -0.151176,-0.24836 -0.323949,-0.47512 -0.496721,-0.71269 -0.161974,-0.23756 -0.334747,-0.47512 -0.518317,-0.69109 -0.183571,-0.22676 -0.356344,-0.45352 -0.539914,-0.68029 l -0.561511,-0.64789 -0.140377,-0.16198 -0.151176,-0.16197 -0.302352,-0.31315 -0.302352,-0.31315 c -0.09718,-0.10799 -0.205167,-0.20517 -0.31315,-0.30235 -0.205167,-0.19437 -0.410334,-0.39954 -0.6263,-0.59391 l -0.647896,-0.56151 -0.161975,-0.14038 -0.172772,-0.12958 -0.334747,-0.26995 -0.334746,-0.26996 c -0.118781,-0.0864 -0.237562,-0.17277 -0.345545,-0.24836 -0.237562,-0.16198 -0.464326,-0.33475 -0.701888,-0.49672 l -0.723485,-0.46433 c -0.118781,-0.0756 -0.24836,-0.15117 -0.367141,-0.22676 l -0.37794,-0.21597 -0.377939,-0.21596 c -0.12958,-0.0648 -0.259159,-0.12958 -0.37794,-0.20517 -0.259159,-0.12958 -0.507519,-0.26996 -0.766678,-0.38874 l -0.788274,-0.35634 c -2.105664,-0.91785 -4.351706,-1.53336 -6.630142,-1.81411 -0.140378,-0.0216 -0.280755,-0.0432 -0.431931,-0.054 l -0.431931,-0.0324 c -0.291554,-0.0216 -0.572309,-0.054 -0.863862,-0.0648 -0.572309,-0.0108 -1.144618,-0.0432 -1.727725,-0.0216 l -0.431931,0.0108 -0.215965,0.0108 -0.215966,0.0108 -0.863862,0.0648 c -0.291554,0.0216 -0.572309,0.0648 -0.853064,0.0972 l -0.431931,0.054 c -0.140378,0.0216 -0.280755,0.0432 -0.421133,0.0756 -2.278436,0.36715 -4.492083,1.07983 -6.565352,2.09487 l -0.777476,0.38874 c -0.248361,0.14038 -0.507519,0.28075 -0.75588,0.42113 -0.129579,0.0756 -0.24836,0.14038 -0.377939,0.21597 l -0.367142,0.22676 -0.367141,0.23756 -0.183571,0.11878 -0.172772,0.12958 -0.712687,0.49672 c -0.226763,0.17278 -0.453527,0.35635 -0.680291,0.52912 -0.226764,0.17277 -0.453528,0.36714 -0.669493,0.55071 -0.215966,0.19437 -0.44273,0.36714 -0.647897,0.57231 -1.695329,1.56575 -3.174693,3.37986 -4.362504,5.37754 -1.18781,1.99768 -2.084067,4.16814 -2.634779,6.43577 l -0.194369,0.85307 c -0.05399,0.28075 -0.107983,0.57231 -0.161974,0.86386 -0.0216,0.14038 -0.05399,0.29155 -0.07559,0.43193 l -0.05399,0.43193 c -0.03239,0.29156 -0.07559,0.58311 -0.09718,0.86386 l -0.06479,0.87467 -0.0108,0.21596 -0.0108,0.21597 -0.0108,0.43193 c -0.0216,0.5831 0.0108,1.16621 0.0216,1.74932 0.0216,0.29155 0.04319,0.58311 0.06479,0.87466 0.0108,0.14038 0.0216,0.29155 0.03239,0.43193 l 0.05399,0.43193 c 0.04319,0.29155 0.06479,0.58311 0.118781,0.86386 l 0.161974,0.86387 c 0.0216,0.14037 0.05399,0.29155 0.08639,0.43193 l 0.09719,0.43193 0.09718,0.43193 c 0.03239,0.14038 0.07559,0.28075 0.118781,0.42113 0.08639,0.28076 0.161974,0.56151 0.248361,0.84227 l 0.291553,0.83146 0.07559,0.20517 0.08639,0.20517 0.161974,0.41033 0.161974,0.41034 c 0.05399,0.14038 0.118782,0.26995 0.183571,0.39953 0.129579,0.26996 0.237562,0.53992 0.37794,0.79908 l 0.410334,0.77747 c 0.572309,1.02584 1.198609,2.01928 1.911295,2.95873 0.712687,0.92865 1.490163,1.82491 2.332428,2.64558 0.842266,0.82067 1.749321,1.57655 2.699569,2.26764 0.961047,0.69109 1.965287,1.29579 3.01272,1.8357 l 0.799072,0.38874 c 0.269957,0.12958 0.539914,0.23756 0.809871,0.35634 0.140378,0.054 0.269957,0.11879 0.410335,0.17278 l 0.410334,0.15117 0.410335,0.15118 c 0.06479,0.0216 0.140377,0.054 0.205167,0.0756 l 0.215965,0.0648 c 2.246042,0.74508 4.600066,1.13382 6.964889,1.16621 -0.226764,0.0648 -0.410334,0.0648 -0.56151,0.0324 -0.151176,-0.0432 -0.269957,-0.11879 -0.367142,-0.21597 -0.194369,-0.19437 -0.291553,-0.48592 -0.377939,-0.74508 -0.08639,-0.25916 -0.172773,-0.48592 -0.323949,-0.55071 -0.161974,-0.0648 -0.388738,0.0216 -0.809871,0.38873 0.323949,-0.82066 0.09718,-1.06903 -0.09718,-1.32818 -0.205167,-0.25916 -0.388738,-0.51832 -0.06479,-1.32819 -0.507519,0 -0.971845,-0.12958 -1.392977,-0.23756 -0.215966,-0.0648 -0.421133,-0.14038 -0.615502,-0.20517 -0.194369,-0.0648 -0.388738,-0.12958 -0.561511,-0.19437 -0.18357,-0.0648 -0.356343,-0.10798 -0.518317,-0.14038 -0.08639,-0.0108 -0.172772,-0.0216 -0.24836,-0.0324 -0.08639,-0.0108 -0.161974,-0.0108 -0.237562,-0.0108 -0.323949,0.0108 -0.637099,0.11878 -0.971845,0.37794 -0.03239,-0.24836 -0.140378,-0.48592 -0.302352,-0.71269 -0.08639,-0.11878 -0.183571,-0.22676 -0.291554,-0.33474 -0.107982,-0.10799 -0.226763,-0.22677 -0.356343,-0.33475 -0.129579,-0.10798 -0.269957,-0.21597 -0.410334,-0.31315 -0.140378,-0.10798 -0.291554,-0.21597 -0.44273,-0.31315 -0.151175,-0.10798 -0.31315,-0.20517 -0.475124,-0.30235 -0.161974,-0.10799 -0.323948,-0.20517 -0.485922,-0.30235 -0.08639,-0.0432 -0.161974,-0.0972 -0.248361,-0.14038 -0.07559,-0.054 -0.161974,-0.0972 -0.237562,-0.15118 -0.161974,-0.0972 -0.323948,-0.19437 -0.475124,-0.28075 -0.161974,-0.0864 -0.302352,-0.18357 -0.453527,-0.25916 -0.151176,-0.0864 -0.291554,-0.16198 -0.421133,-0.22677 -0.269957,-0.14037 -0.496721,-0.26995 -0.69109,-0.35634 -0.194369,-0.0864 -0.345545,-0.12958 -0.421133,-0.14038 0.280755,0.32395 0.496721,0.57231 0.658695,0.78828 0.161974,0.21596 0.269957,0.38874 0.323948,0.58311 0.06479,0.19436 0.07559,0.39953 0.06479,0.65869 -0.0108,0.24836 -0.04319,0.56151 -0.07559,0.96105 -0.615502,-0.31315 -0.842265,-0.0216 -1.058231,0.22676 -0.215966,0.24836 -0.421133,0.44273 -0.971845,-0.15118 0.356343,-0.35634 0.766678,-0.6155 1.069029,-0.89625 0.313151,-0.29156 0.539914,-0.6155 0.572309,-1.10143 -0.151176,-0.11878 -0.291553,-0.24836 -0.431931,-0.37794 -0.140378,-0.12958 -0.291553,-0.24836 -0.431931,-0.37794 -0.367141,0.0972 -0.593905,0.29156 -0.755879,0.50752 -0.161975,0.22677 -0.248361,0.47513 -0.323949,0.69109 -0.172772,0.43193 -0.334746,0.73429 -1.133819,0.25916 0.6263,-0.33475 0.982643,-0.69109 1.306592,-1.09062 0.323948,-0.39954 0.6263,-0.85307 1.101424,-1.39298 -0.09718,-0.054 -0.183571,-0.10799 -0.280755,-0.18357 -0.08639,-0.0756 -0.172773,-0.15118 -0.259159,-0.23757 -0.161974,-0.17277 -0.334746,-0.35634 -0.485922,-0.5723 -0.151176,-0.20517 -0.302352,-0.43193 -0.44273,-0.6371 -0.140377,-0.21597 -0.280755,-0.43193 -0.421132,-0.6263 -0.151176,-0.19437 -0.291554,-0.38874 -0.44273,-0.53992 -0.151176,-0.16197 -0.323948,-0.28075 -0.507519,-0.37794 -0.356343,-0.18357 -0.799072,-0.21596 -1.371381,0.0108 0.464326,-0.42113 0.442729,-0.66949 1.101424,-0.68029 -0.205167,-0.054 -0.388738,-0.11878 -0.539914,-0.19437 -0.161974,-0.0756 -0.302351,-0.14038 -0.431931,-0.22676 -0.129579,-0.0756 -0.24836,-0.15118 -0.356343,-0.23756 -0.107983,-0.0864 -0.205167,-0.17278 -0.302352,-0.25916 -0.09718,-0.0864 -0.194369,-0.17277 -0.291553,-0.25916 -0.09719,-0.0864 -0.194369,-0.17277 -0.302352,-0.26996 -0.205167,-0.18357 -0.442729,-0.36714 -0.766678,-0.56151 1.13382,-0.87466 0.69109,0.72349 1.814111,-0.17277 0,-0.22676 -0.0216,-0.39954 -0.08639,-0.53991 -0.05399,-0.12958 -0.12958,-0.22677 -0.226764,-0.29156 -0.194369,-0.12958 -0.475124,-0.12958 -0.766678,-0.0756 -0.593905,0.0972 -1.2526,0.43193 -1.479364,0.39954 0.205168,-0.34554 0.183571,-0.72348 0.03239,-1.03663 -0.151176,-0.31315 -0.388738,-0.58311 -0.604703,-0.70189 0.05399,0.28075 0.04319,0.55071 -0.0108,0.78827 -0.06479,0.23756 -0.194369,0.46433 -0.442729,0.6587 -0.205167,-0.29156 -0.259159,-0.52912 -0.237562,-0.74508 0.04319,-0.21597 0.161974,-0.39954 0.302352,-0.57231 0.140377,-0.17278 0.302351,-0.33475 0.410334,-0.51832 0.05399,-0.0864 0.09718,-0.18357 0.12958,-0.28076 0.03239,-0.0972 0.04319,-0.20516 0.0216,-0.32394 -0.140377,0.11878 -0.809871,0.33474 -1.306591,0.29155 -0.248361,-0.0216 -0.453528,-0.10798 -0.518318,-0.30235 -0.0324,-0.0972 -0.0324,-0.21597 0.0108,-0.37794 0.04319,-0.15118 0.140377,-0.33475 0.302351,-0.55071 -0.09718,0.18357 -0.08639,0.36714 -0.0108,0.50751 0.07559,0.15118 0.215966,0.25916 0.356343,0.32395 0.291554,0.12958 0.615502,0.0432 0.615502,-0.38873 -0.37794,0.11878 0.107983,-0.15118 0.421133,-0.48593 0.161974,-0.17277 0.269957,-0.35634 0.194369,-0.52911 -0.07559,-0.17278 -0.323949,-0.33475 -0.885459,-0.47513 0.0108,0.0756 0.0108,0.17278 0,0.24836 -0.0108,0.0864 -0.03239,0.16198 -0.06479,0.21597 -0.06479,0.10798 -0.172772,0.11878 -0.334746,-0.0972 0.205167,-0.51831 0.56151,-0.93945 0.982643,-1.30659 0.431931,-0.36714 0.917854,-0.69109 1.382179,-1.01504 -0.550712,-0.0648 -0.961046,0.26996 -1.360582,0.52912 -0.388738,0.25916 -0.75588,0.43193 -1.209407,-0.0648 0.18357,-0.10798 0.334746,-0.23756 0.485922,-0.35634 0.07559,-0.0648 0.151176,-0.11878 0.237562,-0.18357 0.08639,-0.054 0.172773,-0.11878 0.259159,-0.16198 0.367141,-0.20516 0.820669,-0.34554 1.554952,-0.31315 -0.04319,-1.46856 0.06479,-2.94793 0.334746,-4.3841 -1.328188,0.0432 -2.084067,0.36714 -2.375621,0.89626 -0.151176,0.25916 -0.194369,0.57231 -0.129579,0.91785 0.03239,0.17278 0.08639,0.35635 0.151176,0.53992 0.0324,0.0972 0.07559,0.19437 0.118781,0.29155 0.05399,0.0972 0.107983,0.19437 0.161974,0.29155 0.356343,-0.34554 0.518317,-0.6263 0.550712,-0.88546 0.04319,-0.25915 -0.03239,-0.47512 -0.05399,-0.66949 -0.06479,-0.37794 -0.06479,-0.6371 0.993441,-0.64789 -0.0216,0.20516 -0.06479,0.38873 -0.107982,0.55071 -0.04319,0.16197 -0.107983,0.31315 -0.161975,0.44273 -0.107982,0.26995 -0.237562,0.48592 -0.323948,0.69109 -0.09718,0.20516 -0.129579,0.39953 -0.08639,0.6263 0.05399,0.22676 0.183571,0.46432 0.475124,0.76667 -0.399536,-0.21596 -0.637098,-0.24836 -0.842266,-0.15117 -0.194369,0.0972 -0.31315,0.31315 -0.453527,0.55071 -0.140378,0.23756 -0.302352,0.49672 -0.550712,0.68029 -0.248361,0.18357 -0.593906,0.30235 -1.133819,0.22677 -0.0216,-0.21597 -0.0216,-0.43194 -0.0216,-0.6479 l -0.0108,-0.6479 c 0.593905,-0.0216 0.80987,0.10799 0.993441,0.17277 0.183571,0.0648 0.31315,0.0648 0.734283,-0.18357 -0.431931,-0.19436 -0.745081,-0.44273 -0.993441,-0.73428 -0.118781,-0.14038 -0.215966,-0.30235 -0.302352,-0.46432 -0.08639,-0.16198 -0.12958,-0.32395 -0.183571,-0.49673 -0.04319,-0.17277 -0.07559,-0.34554 -0.08639,-0.52911 -0.0108,-0.0864 -0.0108,-0.18357 -0.0216,-0.26996 0,-0.0864 0,-0.18357 0.0108,-0.26995 0.0108,-0.18358 0.03239,-0.36715 0.05399,-0.53992 0.0216,-0.18357 0.04319,-0.35634 0.08639,-0.53991 0.107983,0.21596 0.93945,0.0648 1.63054,-0.17277 0.345545,-0.11879 0.637098,-0.26996 0.809871,-0.43194 0.172772,-0.15117 0.194369,-0.32394 -0.0216,-0.49672 -0.485922,0.23757 -0.842265,0.19437 -1.090626,-0.0432 -0.129579,-0.11878 -0.226764,-0.29155 -0.302351,-0.50752 -0.0324,-0.10798 -0.06479,-0.21596 -0.09718,-0.33475 -0.0216,-0.11878 -0.0324,-0.24836 -0.04319,-0.37794 -0.107983,-1.04743 0.259159,-2.37562 0.604703,-2.91553 0.345545,0.70189 0.799073,0.96105 1.166214,1.22021 0.183571,0.12957 0.345545,0.25915 0.464326,0.42113 0.12958,0.17277 0.215966,0.38874 0.259159,0.70189 -0.658695,0.10798 -0.777476,-0.12958 -0.885459,-0.32395 -0.107983,-0.19437 -0.215965,-0.33475 -0.853064,0.0756 0.561511,0.36714 0.572309,0.73428 0.680292,1.16621 0.09718,0.42113 0.323948,0.93945 1.295793,1.49016 0.259159,-1.2202 0.6263,-2.38642 1.090626,-3.48784 0.464326,-1.10143 1.025836,-2.14886 1.652136,-3.1315 0.637099,-0.98265 1.349785,-1.8897 2.127261,-2.73197 0.194369,-0.20516 0.388738,-0.42113 0.593905,-0.6155 0.205167,-0.19437 0.410335,-0.39953 0.615502,-0.5939 l 0.647897,-0.56151 c 0.215965,-0.18357 0.442729,-0.35635 0.669493,-0.52912 0.907055,-0.69109 1.868102,-1.30659 2.872341,-1.83571 1.015038,-0.52911 2.07327,-0.98264 3.174694,-1.32818 1.101424,-0.34555 2.246041,-0.60471 3.433852,-0.76668 1.177012,-0.15118 2.386419,-0.21597 3.628221,-0.15118 0.118781,-0.90705 -0.08639,-1.34978 -0.37794,-1.73852 -0.280755,-0.37794 -0.6263,-0.69109 -0.755879,-1.30659 0.0108,-0.25916 0.04319,-0.51832 0.323948,-0.43193 0.356343,1.07982 0.507519,1.16621 0.75588,0.93945 0.118781,-0.10799 0.259158,-0.30235 0.453527,-0.47513 0.12958,-0.17277 0.356343,-0.33474 0.658695,-0.38873 z m -5.885061,44.84524 c -0.291553,0.33475 -0.507519,0.89626 -0.6263,1.64134 -0.215965,0 -0.280755,-0.15118 -0.269957,-0.36714 0.0108,-0.21597 0.09718,-0.48593 0.161974,-0.74509 0.12958,-0.51831 0.205168,-0.98264 -0.442729,-0.77747 0.712686,0.16197 0.69109,-0.24836 0.485922,-0.66949 -0.215965,-0.42114 -0.604703,-0.84227 -0.734282,-0.72349 0.205167,-0.17277 0.356343,-0.29155 0.485922,-0.33475 0.129579,-0.0432 0.215966,-0.0324 0.291554,0.0324 0.140377,0.11878 0.194369,0.42113 0.237562,0.75588 0.06479,0.66949 0.05399,1.44697 0.410334,1.18781 z m -13.389863,-5.46393 c -0.03239,-0.23756 0.129579,-0.48592 0.367141,-0.74508 0.237562,-0.25916 0.539914,-0.52912 0.777476,-0.77748 0.237562,-0.25915 0.431931,-0.50751 0.442729,-0.73428 0,-0.10798 -0.03239,-0.21596 -0.129579,-0.31315 -0.09718,-0.0972 -0.259159,-0.18357 -0.485922,-0.28075 0.550712,-0.18357 0.853064,0.10798 1.047433,0.52911 0.04319,0.10798 0.09718,0.21597 0.140377,0.32395 0.04319,0.10798 0.08639,0.22676 0.118781,0.33475 0.07559,0.21596 0.140378,0.41033 0.226764,0.51831 -0.831467,0.47513 -1.69533,1.02584 -2.5052,1.14462 z m -1.652137,-1.98688 c -0.377939,-0.20517 0.161974,-0.82067 0.550712,-1.22021 0.388738,-0.41033 0.626301,-0.6047 -0.399536,-0.054 -0.118781,-0.43193 0.766678,-0.80987 1.274197,-1.20941 -0.07559,0.11879 -0.08639,0.22677 -0.06479,0.30236 0.0216,0.0756 0.08639,0.14037 0.172773,0.19437 0.172772,0.0972 0.421132,0.15117 0.6263,0.22676 0.09718,0.0324 0.18357,0.0756 0.24836,0.12958 0.06479,0.054 0.09719,0.11878 0.08639,0.20517 -0.0216,0.17277 -0.226763,0.44273 -0.745081,0.87466 -0.18357,-0.42114 -0.302352,-0.50752 -0.388738,-0.43193 -0.09718,0.0864 -0.161974,0.34554 -0.24836,0.6155 -0.161974,0.53991 -0.37794,1.14461 -1.112223,0.36714 z m -2.591586,-4.44889 c 0.05399,-0.16198 0.09718,-0.32395 0.118781,-0.49672 0.0216,-0.17278 0,-0.35635 -0.08639,-0.55071 0.442729,-0.11879 0.669493,-0.0864 0.788274,0.0216 0.06479,0.054 0.09718,0.12958 0.107983,0.20517 0.0216,0.0756 0.0324,0.17277 0.04319,0.25916 0.0324,0.35634 0.05399,0.72348 0.853064,0.41033 -0.05399,0.31315 -0.140378,0.45353 -0.269957,0.49672 -0.118781,0.0432 -0.280755,-0.0216 -0.453528,-0.10798 -0.334746,-0.19437 -0.745081,-0.48592 -1.101424,-0.23756 z m 1.857304,-18.97257 c 0.388737,0.26995 0.0216,0.65869 0.539913,0.89625 -0.442729,0.0972 -1.047433,-0.25916 -2.494402,-0.76668 0.345545,-0.41033 0.734283,-0.39953 1.090626,-0.30235 0.345545,0.0972 0.658695,0.25916 0.863863,0.17278 z m -1.295794,-0.26996 c 0.0324,-0.11878 0.06479,-0.23756 0.09719,-0.34555 0.03239,-0.10798 0.06479,-0.22676 0.09718,-0.33474 0.06479,-0.21597 0.12958,-0.43193 0.194369,-0.6371 0.12958,-0.39954 0.280755,-0.77748 0.475124,-1.12302 0.205168,-0.33475 0.453528,-0.6587 0.788275,-0.93945 0.172772,-0.14038 0.367141,-0.25916 0.583107,-0.37794 0.107982,-0.054 0.226763,-0.11878 0.345544,-0.16198 0.118782,-0.054 0.259159,-0.0972 0.399537,-0.14037 -0.140378,0.29155 -0.237562,0.51831 -0.345545,0.70188 -0.107983,0.18358 -0.215966,0.32395 -0.323948,0.45353 -0.118782,0.14038 -0.237563,0.28076 -0.37794,0.46433 -0.140378,0.18357 -0.323948,0.38874 -0.507519,0.70189 0.291553,0.23756 0.496721,0.28075 0.658695,0.24836 0.07559,-0.0216 0.151176,-0.0648 0.215965,-0.11878 0.06479,-0.054 0.12958,-0.11879 0.183571,-0.19437 0.226764,0.19437 0.194369,0.38873 0.107983,0.6047 -0.08639,0.20517 -0.259159,0.42113 -0.334747,0.6371 -1.058231,-0.68029 -1.349784,-0.6155 -1.50096,-0.32395 -0.07559,0.14038 -0.118781,0.33475 -0.215966,0.50752 -0.04319,0.0864 -0.107983,0.16197 -0.194369,0.23756 -0.107983,0.0432 -0.215965,0.0972 -0.345546,0.14038 z m 4.481285,-5.21557 c -0.377939,0.24836 -0.431931,0.054 -0.453527,-0.24836 -0.0216,-0.30235 0,-0.70189 -0.280756,-0.85306 0.226764,-0.19437 0.529116,0.0216 0.831468,0.26995 0.302351,0.24836 0.604703,0.52912 0.842265,0.47513 0.07559,-0.15118 -0.04319,-0.34555 -0.140377,-0.52912 -0.09718,-0.18357 -0.183571,-0.36714 -0.0324,-0.51832 -0.421133,-0.43193 -0.399536,-0.0972 -0.410335,0.15118 -0.0108,0.24836 -0.05399,0.43193 -0.647896,-0.32395 0.140377,-0.0864 0.269957,-0.16197 0.377939,-0.22676 0.107983,-0.0648 0.194369,-0.12958 0.269957,-0.18357 0.151176,-0.11878 0.248361,-0.21597 0.345545,-0.33475 0.09718,-0.11878 0.194369,-0.23756 0.323949,-0.39954 0.06479,-0.0756 0.151175,-0.17277 0.237562,-0.26995 0.09718,-0.0972 0.205167,-0.21597 0.345544,-0.33475 0.215966,0.23756 0.280756,0.48592 0.302352,0.73428 0.0216,0.24836 0,0.48593 -0.0108,0.6803 -0.0108,0.38873 0.07559,0.6047 0.842266,0.45352 0.291553,0.69109 0.03239,0.6695 -0.367142,0.51832 -0.194369,-0.0756 -0.431931,-0.19437 -0.637098,-0.28075 -0.205167,-0.0864 -0.37794,-0.12958 -0.464326,-0.0972 0.734283,0.71269 0.388738,0.86386 -0.151176,0.91785 -0.507519,0.0864 -1.220205,0.0972 -1.123021,0.39954 z m 3.163895,-4.47049 c 0.269957,0.6695 0.161975,1.18781 0.172773,1.65214 0,0.22676 0.04319,0.45353 0.161974,0.66949 0.118781,0.21597 0.334747,0.43193 0.680291,0.6587 -0.388738,-0.0432 -0.831467,-0.6047 -1.209407,-0.15118 -0.151175,-0.16197 -0.04319,-0.52911 -0.0108,-0.82067 0.03239,-0.29155 -0.0324,-0.52911 -0.56151,-0.36714 -0.280755,-0.47512 0.226764,-0.73428 0.485922,-0.38874 0.09718,-0.39953 -0.31315,-0.98264 0.280755,-1.2526 z m 5.787877,-0.12958 c -0.658695,-0.054 -1.274197,0.30236 -1.868102,0.46433 -0.291554,0.0864 -0.583107,0.12958 -0.885459,0.0432 -0.302352,-0.0756 -0.615502,-0.26995 -0.961046,-0.65869 -0.215966,0.44273 -0.291554,0.75588 -0.44273,0.97184 -0.07559,0.10799 -0.172772,0.19437 -0.31315,0.24836 -0.07559,0.0324 -0.151176,0.054 -0.24836,0.0756 -0.09719,0.0216 -0.215966,0.0324 -0.334747,0.0432 -0.09718,-0.12958 -0.07559,-0.30236 0,-0.45353 0.07559,-0.16198 0.194369,-0.31315 0.280755,-0.43193 0.172773,-0.23757 0.215966,-0.33475 -0.507519,-0.0108 0.0216,-0.31315 0.183571,-0.57231 0.421133,-0.79907 0.118781,-0.11879 0.269957,-0.21597 0.421133,-0.31315 0.161974,-0.0972 0.334747,-0.18358 0.507519,-0.26996 0.172772,-0.0864 0.367141,-0.16198 0.550712,-0.23756 0.183571,-0.0756 0.37794,-0.15118 0.561511,-0.22677 0.08639,-0.0432 0.18357,-0.0756 0.269956,-0.11878 0.08639,-0.0324 0.172773,-0.0756 0.259159,-0.11878 0.161974,-0.0756 0.31315,-0.17277 0.453528,-0.26996 0.356343,0.60471 0.0216,0.80987 0.237562,1.31739 0.669493,-0.0864 0.291553,-0.79907 0.06479,-1.44697 l 0.755879,-0.29155 0.183571,-0.0756 0.194369,-0.0648 0.377939,-0.12958 c -0.215965,0.46433 -0.194369,0.86387 -0.08639,1.19861 0.107983,0.34555 0.291554,0.6263 0.431931,0.84227 0.140378,0.21596 0.226764,0.36714 0.140378,0.43193 -0.04319,0.0324 -0.12958,0.0432 -0.269957,0.0432 -0.140378,0 -0.345545,-0.0216 -0.6263,-0.054 0.08639,0.35634 0.259158,0.33475 0.431931,0.29155 z m 3.185492,-3.14229 c 0.18357,0.44273 0.03239,0.82067 -0.0216,1.04743 -0.05399,0.22676 0,0.31315 0.550712,0.17277 0.08639,0.74508 -0.107983,0.77748 -0.31315,0.72349 -0.205167,-0.054 -0.431931,-0.16198 -0.37794,0.29155 -0.453527,-0.0864 -0.49672,-0.43193 -0.453527,-0.85306 0.03239,-0.42114 0.161974,-0.90706 -0.0108,-1.2634 0.04319,0.77747 -0.345545,0.73428 -0.75588,0.74508 -0.399536,0.0108 -0.820669,0.0756 -0.712686,0.97184 -0.37794,0.0648 -0.345545,-0.14037 -0.291554,-0.47512 0.05399,-0.32395 0.140378,-0.76668 -0.215965,-1.17701 0.226764,-0.054 0.464326,-0.12958 0.701888,-0.20517 0.118781,-0.0324 0.237562,-0.0756 0.356343,-0.10798 0.118781,-0.0324 0.237562,-0.054 0.356343,-0.0756 0.226764,-0.0432 0.453528,-0.0648 0.658695,-0.0432 0.205167,0.0216 0.37794,0.10798 0.529116,0.24836 z m 0,0 c 0.280755,-0.23757 0.507519,-0.36715 0.723484,-0.43193 0.215966,-0.0648 0.399536,-0.0648 0.615502,-0.0648 0.205167,0 0.431931,0 0.712686,-0.0324 0.280755,-0.0324 0.6263,-0.10798 1.06903,-0.28075 0.464326,0.49672 0.388738,1.02583 0.421132,1.43617 0.0216,0.41033 0.12958,0.69109 0.863863,0.69109 -0.215966,0.93945 -0.550713,0.85306 -0.907056,0.41033 -0.08639,-0.10798 -0.18357,-0.24836 -0.269957,-0.38874 -0.08639,-0.14038 -0.172772,-0.29155 -0.259158,-0.44273 -0.172773,-0.30235 -0.323949,-0.5939 -0.421133,-0.79907 0.0108,1.16621 -0.05399,1.18781 -0.151176,1.18781 -0.08639,0 -0.205167,-0.0324 -0.24836,1.00424 -0.431931,-0.53991 -0.680292,-0.6479 -0.896257,-0.55071 -0.05399,0.0216 -0.107983,0.0648 -0.161974,0.11878 -0.05399,0.054 -0.107983,0.11878 -0.172773,0.18357 -0.118781,0.14038 -0.259159,0.31315 -0.431931,0.49672 0.172772,-0.56151 0.410335,-1.09062 0.431931,-1.53335 0.0108,-0.43194 -0.183571,-0.78828 -0.917853,-1.00424 z m 25.149187,20.94865 c 0.205167,-0.0648 0.377939,-0.15117 0.518317,-0.25916 0.140378,-0.10798 0.259159,-0.23756 0.334747,-0.37793 0.161974,-0.28076 0.237562,-0.61551 0.259158,-0.98265 0.572309,0.0216 0.745081,0.44273 1.360583,0.44273 0.129579,0.57231 -0.453527,0.72349 -0.31315,1.31739 -1.058231,0.11878 -2.073269,0.17277 -2.602385,-0.10798 0.06479,-0.32395 0.431931,-0.19437 0.44273,-0.0324 z M -59.595287,115.5391 c 0.151176,-0.44273 0.442729,-0.38874 0.745081,-0.20517 0.151176,0.0864 0.31315,0.20517 0.464326,0.30235 0.07559,0.0432 0.151176,0.0864 0.226764,0.11878 0.07559,0.0324 0.140377,0.054 0.205167,0.054 -0.09718,0.18357 -0.215966,0.21597 -0.356343,0.19437 -0.12958,-0.0108 -0.280755,-0.0756 -0.410335,-0.0864 0.0108,0.38873 0,0.76667 -0.269957,1.29579 -0.518317,-0.0216 -0.539914,-0.34555 -0.49672,-0.71269 0.03239,-0.34554 0.140377,-0.76668 -0.107983,-0.96104 z m 4.178933,2.24604 c -0.183571,0.51831 0.09718,0.86386 0.291553,1.2418 0.183571,0.37794 0.248361,0.78827 -0.345544,1.40378 0.140377,0.21596 0.31315,0.0324 0.49672,-0.16198 -0.24836,0.30235 -0.431931,0.36714 -0.56151,0.25916 -0.06479,-0.054 -0.118781,-0.15118 -0.161974,-0.28076 -0.04319,-0.12957 -0.06479,-0.29155 -0.09719,-0.47512 -0.04319,-0.36714 -0.06479,-0.82067 -0.04319,-1.30659 0.0108,-0.47513 0.04319,-0.96105 0.118781,-1.39298 0.172773,0.10798 0.334747,0.21597 0.496721,0.31315 0.151176,0.10798 0.291553,0.21597 0.421133,0.31315 0.259158,0.20517 0.485922,0.37794 0.658695,0.56151 0.367141,0.36714 0.604703,0.69109 0.734282,1.05823 -0.377939,0.10799 -0.637098,0.12958 -0.842265,0.0756 -0.205167,-0.0432 -0.334747,-0.17277 -0.44273,-0.33475 -0.05399,-0.0864 -0.107982,-0.17277 -0.151175,-0.28075 -0.05399,-0.0972 -0.09718,-0.20517 -0.161975,-0.31315 -0.107982,-0.21597 -0.226763,-0.45353 -0.410334,-0.68029 z"
                   id="path180" />
              </g>
              <g
                 id="flowRoot152"
                 style="font-style:normal;font-weight:normal;font-size:40px;line-height:1.25;font-family:sans-serif;letter-spacing:0px;word-spacing:0px;fill:#009688;fill-opacity:1;stroke:none"
                 transform="matrix(0.26458333,0,0,0.26458333,-60.869039,-7.4295577)"
                 aria-label="S">
                <path
                   inkscape:connector-curvature="0"
                   id="path4793"
                   style="font-style:normal;font-variant:normal;font-weight:bold;font-stretch:normal;font-size:192px;font-family:Lato;-inkscape-font-specification:'Lato Bold';fill:#009688;fill-opacity:1"
                   d="m -1.8876719,503.69903 q -1.152,2.016 -2.496,2.976 -1.248,0.864 -3.168,0.864 -2.016,0 -4.4160001,-1.44 -2.304,-1.536 -5.568,-3.36 -3.264,-1.824 -7.68,-3.264 -4.32,-1.536 -10.272,-1.536 -5.376,0 -9.408,1.344 -4.032,1.248 -6.816,3.552 -2.688,2.304 -4.032,5.568 -1.344,3.168 -1.344,7.008 0,4.896 2.688,8.16 2.784,3.264 7.296,5.568 4.512,2.304 10.272,4.128 5.76,1.824 11.808,3.936 6.048,2.016 11.808,4.8 5.7600001,2.688 10.2720001,6.912 4.512,4.128 7.2,10.176 2.784,6.048 2.784,14.688 0,9.408 -3.264,17.664 -3.16799997,8.16 -9.408,14.304 -6.1440001,6.048 -15.0720001,9.6 -8.928,3.456 -20.448,3.456 -6.624,0 -13.056,-1.344 -6.432,-1.248 -12.384,-3.648 -5.856,-2.4 -11.04,-5.76 -5.184,-3.36 -9.216,-7.488 l 7.584,-12.384 q 0.96,-1.344 2.496,-2.208 1.536,-0.96 3.264,-0.96 2.4,0 5.184,2.016 2.784,1.92 6.624,4.32 3.84,2.4 8.928,4.416 5.184,1.92 12.384,1.92 11.04,0 17.088,-5.184 6.048,-5.28 6.048,-15.072 0,-5.472 -2.784,-8.928 -2.688,-3.456 -7.2,-5.76 -4.512,-2.4 -10.272,-4.032 -5.76,-1.632 -11.712,-3.552 -5.952,-1.92 -11.712,-4.608 -5.76,-2.688 -10.272,-7.008 -4.512,-4.32 -7.296,-10.752 -2.688,-6.528 -2.688,-16.032 0,-7.584 2.976,-14.784 3.072,-7.2 8.832,-12.768 5.76,-5.568 14.208,-8.928 8.448,-3.36 19.392,-3.36 12.288,0 22.656,3.84 10.3680001,3.84 17.6640001,10.752 z" />
              </g>
            </g>
            <path
               inkscape:connector-curvature="0"
               id="path4807"
               style="font-style:normal;font-variant:normal;font-weight:bold;font-stretch:normal;font-size:49.61557388px;font-family:Lato;-inkscape-font-specification:'Lato Bold';fill:#333333;fill-opacity:1;stroke-width:0.2657977"
               d="m -23.633306,153.24045 q -0.868273,0 -1.339621,-0.24808 -0.471348,-0.27289 -0.744234,-1.06673 l -0.545771,-1.81097 q -0.967504,0.86827 -1.885392,1.53808 -0.917888,0.645 -1.910199,1.09154 -0.992312,0.44654 -2.13347,0.66981 -1.11635,0.22327 -2.480779,0.22327 -1.612506,0 -2.976934,-0.42173 -1.364428,-0.44654 -2.35674,-1.31481 -0.992311,-0.86828 -1.538083,-2.15828 -0.545771,-1.29 -0.545771,-3.00174 0,-1.43885 0.744234,-2.82809 0.769041,-1.41404 2.530394,-2.53039 1.761353,-1.14116 4.688672,-1.8854 2.927319,-0.74423 7.293489,-0.84346 V 137.165 q 0,-2.5552 -1.091543,-3.77078 -1.091542,-1.24039 -3.150589,-1.24039 -1.488467,0 -2.480778,0.34731 -0.967504,0.34731 -1.711738,0.79385 -0.744233,0.42173 -1.364428,0.76904 -0.595387,0.34731 -1.33962,0.34731 -0.645003,0 -1.091543,-0.3225 -0.44654,-0.34731 -0.719426,-0.79385 l -1.091542,-1.95982 q 4.390978,-4.01886 10.568117,-4.01886 2.232701,0 3.994054,0.74423 1.761352,0.71943 2.976934,2.03424 1.215582,1.29001 1.835776,3.10098 0.645003,1.81096 0.645003,3.96924 v 16.07545 z m -9.154074,-3.8204 q 1.885392,0 3.24982,-0.66981 1.389236,-0.69462 2.704049,-2.08386 v -4.29174 q -2.679241,0.12404 -4.490209,0.47135 -1.786161,0.3225 -2.877704,0.84346 -1.091542,0.52096 -1.56289,1.21558 -0.471348,0.69462 -0.471348,1.51328 0,1.6125 0.942696,2.30712 0.967503,0.69462 2.505586,0.69462 z" />
            <path
               inkscape:connector-curvature="0"
               id="path4809"
               style="font-style:normal;font-variant:normal;font-weight:bold;font-stretch:normal;font-size:49.61557388px;font-family:Lato;-inkscape-font-specification:'Lato Bold';fill:#333333;fill-opacity:1;stroke-width:0.2657977"
               d="m -8.8819769,116.37608 v 36.86437 H -15.0095 v -36.86437 z" />
            <path
               inkscape:connector-curvature="0"
               id="path4811"
               style="font-style:normal;font-variant:normal;font-weight:bold;font-stretch:normal;font-size:49.61557388px;font-family:Lato;-inkscape-font-specification:'Lato Bold';fill:#333333;fill-opacity:1;stroke-width:0.2657977"
               d="m 8.064067,127.39073 q 2.406355,0 4.440594,0.76905 2.034238,0.76904 3.497898,2.2575 1.463659,1.46366 2.282316,3.62194 0.843465,2.13347 0.843465,4.88713 0,1.38924 -0.297693,1.8854 -0.297694,0.47134 -1.141159,0.47134 H 1.9365437 q 0.1488467,1.95982 0.694618,3.39867 0.5457713,1.41405 1.4388516,2.35674 0.8930804,0.91789 2.1086619,1.38924 1.2403894,0.44654 2.7288566,0.44654 1.4884672,0 2.5552022,-0.34731 1.091542,-0.34731 1.885392,-0.76904 0.818657,-0.42174 1.414044,-0.76904 0.620194,-0.34731 1.190773,-0.34731 0.769042,0 1.141158,0.57058 l 1.761353,2.2327 q -1.017119,1.19077 -2.282316,2.00943 -1.265197,0.79385 -2.654433,1.29 -1.364429,0.47135 -2.80328,0.66981 -1.414044,0.19846 -2.7536645,0.19846 -2.6544332,0 -4.9367496,-0.86827 -2.2823164,-0.89308 -3.96924594,-2.60482 -1.68692956,-1.73654 -2.65443316,-4.26693 -0.9675037,-2.55521 -0.9675037,-5.90426 0,-2.60482 0.8434647,-4.88713 0.8434648,-2.30713 2.40635536,-3.99406 1.58769836,-1.71173 3.84520694,-2.70404 2.2823164,-0.99232 5.1352119,-0.99232 z m 0.124039,4.39098 q -2.679241,0 -4.192516,1.51328 -1.513275,1.51327 -1.9350074,4.29174 H 13.621011 q 0,-1.19077 -0.347309,-2.2327 -0.322501,-1.06673 -0.992311,-1.86058 -0.66981,-0.79385 -1.711737,-1.24039 -1.0171198,-0.47135 -2.381548,-0.47135 z" />
            <path
               inkscape:connector-curvature="0"
               id="path4813"
               style="font-style:normal;font-variant:normal;font-weight:bold;font-stretch:normal;font-size:49.61557388px;font-family:Lato;-inkscape-font-specification:'Lato Bold';fill:#333333;fill-opacity:1;stroke-width:0.2657977"
               d="m 30.029035,127.78766 v 25.45279 h -6.152331 v -25.45279 z m 0.843465,-7.41753 q 0,0.79385 -0.322502,1.48847 -0.322501,0.69462 -0.868272,1.21558 -0.520964,0.52096 -1.240389,0.84346 -0.719426,0.2977 -1.538083,0.2977 -0.793849,0 -1.513275,-0.2977 -0.694618,-0.3225 -1.215582,-0.84346 -0.520963,-0.52096 -0.843465,-1.21558 -0.297693,-0.69462 -0.297693,-1.48847 0,-0.81866 0.297693,-1.53808 0.322502,-0.71943 0.843465,-1.24039 0.520964,-0.52097 1.215582,-0.81866 0.719426,-0.3225 1.513275,-0.3225 0.818657,0 1.538083,0.3225 0.719425,0.29769 1.240389,0.81866 0.545771,0.52096 0.868272,1.24039 0.322502,0.71942 0.322502,1.53808 z" />
            <path
               inkscape:connector-curvature="0"
               id="path4815"
               style="font-style:normal;font-variant:normal;font-weight:bold;font-stretch:normal;font-size:49.61557388px;font-family:Lato;-inkscape-font-specification:'Lato Bold';fill:#333333;fill-opacity:1;stroke-width:0.2657977"
               d="m 36.275951,153.24045 v -25.45279 h 3.745976 q 1.190774,0 1.562891,1.11635 l 0.421732,2.00943 q 0.769041,-0.79385 1.612506,-1.43885 0.868273,-0.645 1.810968,-1.11635 0.967504,-0.47135 2.059047,-0.71943 1.091542,-0.24808 2.381547,-0.24808 2.083854,0 3.696361,0.71943 1.612506,0.69462 2.679241,1.98462 1.091542,1.2652 1.637314,3.05136 0.570579,1.76135 0.570579,3.89482 v 16.19949 h -6.127524 v -16.19949 q 0,-2.33193 -1.066735,-3.59713 -1.066734,-1.29 -3.24982,-1.29 -1.587698,0 -2.976934,0.71942 -1.389236,0.71943 -2.629626,1.95982 v 18.40738 z" />
            <path
               inkscape:connector-curvature="0"
               id="path4817"
               style="font-style:normal;font-variant:normal;font-weight:bold;font-stretch:normal;font-size:49.61557388px;font-family:Lato;-inkscape-font-specification:'Lato Bold';fill:#333333;fill-opacity:1;stroke-width:0.2657977"
               d="m 80.927637,153.24045 q -0.868272,0 -1.33962,-0.24808 -0.471348,-0.27289 -0.744234,-1.06673 l -0.545771,-1.81097 q -0.967504,0.86827 -1.885392,1.53808 -0.917888,0.645 -1.9102,1.09154 -0.992311,0.44654 -2.133469,0.66981 -1.116351,0.22327 -2.480779,0.22327 -1.612506,0 -2.976934,-0.42173 -1.364429,-0.44654 -2.35674,-1.31481 -0.992312,-0.86828 -1.538083,-2.15828 -0.545771,-1.29 -0.545771,-3.00174 0,-1.43885 0.744233,-2.82809 0.769042,-1.41404 2.530395,-2.53039 1.761352,-1.14116 4.688671,-1.8854 2.927319,-0.74423 7.29349,-0.84346 V 137.165 q 0,-2.5552 -1.091543,-3.77078 -1.091543,-1.24039 -3.150589,-1.24039 -1.488467,0 -2.480779,0.34731 -0.967503,0.34731 -1.711737,0.79385 -0.744234,0.42173 -1.364428,0.76904 -0.595387,0.34731 -1.339621,0.34731 -0.645002,0 -1.091542,-0.3225 -0.44654,-0.34731 -0.719426,-0.79385 l -1.091543,-1.95982 q 4.390979,-4.01886 10.568117,-4.01886 2.232701,0 3.994054,0.74423 1.761353,0.71943 2.976935,2.03424 1.215581,1.29001 1.835776,3.10098 0.645002,1.81096 0.645002,3.96924 v 16.07545 z m -9.154073,-3.8204 q 1.885392,0 3.24982,-0.66981 1.389236,-0.69462 2.704049,-2.08386 v -4.29174 q -2.679241,0.12404 -4.49021,0.47135 -1.78616,0.3225 -2.877703,0.84346 -1.091543,0.52096 -1.562891,1.21558 -0.471348,0.69462 -0.471348,1.51328 0,1.6125 0.942696,2.30712 0.967504,0.69462 2.505587,0.69462 z" />
          </g>
          <g
             id="flowRoot3742"
             style="font-style:normal;font-weight:normal;font-size:40px;line-height:1.25;font-family:sans-serif;letter-spacing:0px;word-spacing:0px;fill:#333333;fill-opacity:1;stroke:none"
             transform="matrix(0.26579771,0,0,0.26579771,-100.26421,100.76605)"
             aria-label="CMS">
            <path
               inkscape:connector-curvature="0"
               id="path4555"
               style="font-style:normal;font-variant:normal;font-weight:bold;font-stretch:normal;font-size:192px;font-family:Lato;-inkscape-font-specification:'Lato Bold';fill:#333333;fill-opacity:1"
               d="m 822.19727,184.33008 q -9.9375,5.15625 -20.71875,7.78125 -10.78125,2.625 -22.5,2.625 -34.96875,0 -55.40625,-19.5 -20.4375,-19.59375 -20.4375,-53.0625 0,-33.562502 20.4375,-53.062502 20.4375,-19.59375 55.40625,-19.59375 11.71875,0 22.5,2.625 10.78125,2.625 20.71875,7.78125 v 28.96875 q -10.03125,-6.84375 -19.78125,-10.03125 -9.75,-3.1875 -20.53125,-3.1875 -19.3125,0 -30.375,12.375 -11.0625,12.375002 -11.0625,34.125002 0,21.65625 11.0625,34.03125 11.0625,12.375 30.375,12.375 10.78125,0 20.53125,-3.1875 9.75,-3.1875 19.78125,-10.03125 z" />
            <path
               inkscape:connector-curvature="0"
               id="path4557"
               style="font-style:normal;font-variant:normal;font-weight:bold;font-stretch:normal;font-size:192px;font-family:Lato;-inkscape-font-specification:'Lato Bold';fill:#333333;fill-opacity:1"
               d="m 852.19727,52.048828 h 45.9375 l 31.875,74.906252 32.0625,-74.906252 H 1007.916 V 192.01758 H 973.79102 V 89.642578 l -32.25,75.468752 h -22.875 l -32.25,-75.468752 V 192.01758 h -34.21875 z" />
            <path
               inkscape:connector-curvature="0"
               id="path4559"
               style="font-style:normal;font-variant:normal;font-weight:bold;font-stretch:normal;font-size:192px;font-family:Lato;-inkscape-font-specification:'Lato Bold';fill:#333333;fill-opacity:1"
               d="m 1140.8535,56.455078 v 29.625 q -11.5312,-5.15625 -22.5,-7.78125 -10.9687,-2.625 -20.7187,-2.625 -12.9375,0 -19.125,3.5625 -6.1875,3.5625 -6.1875,11.0625 0,5.625 4.125,8.8125 4.2187,3.093752 15.1875,5.343752 l 15.375,3.09375 q 23.3437,4.6875 33.1875,14.25 9.8437,9.5625 9.8437,27.1875 0,23.15625 -13.7812,34.5 -13.6875,11.25 -41.9063,11.25 -13.3125,0 -26.7187,-2.53125 -13.4063,-2.53125 -26.8125,-7.5 v -30.46875 q 13.4062,7.125 25.875,10.78125 12.5625,3.5625 24.1875,3.5625 11.8125,0 18.0937,-3.9375 6.2813,-3.9375 6.2813,-11.25 0,-6.5625 -4.3125,-10.125 -4.2188,-3.5625 -16.9688,-6.375 l -13.9687,-3.09375 q -21,-4.5 -30.75,-14.34375 -9.6563,-9.84375 -9.6563,-26.531252 0,-20.90625 13.5,-32.15625 13.5,-11.25 38.8125,-11.25 11.5313,0 23.7188,1.78125 12.1875,1.6875 25.2187,5.15625 z" />
          </g>
        </g>
      </g>
    </g>
  </g>
</svg>
